<?xml version="1.0" encoding="UTF-8" standalone="no"?><svg xmlns="http://www.w3.org/2000/svg" xmlns:xlink="http://www.w3.org/1999/xlink" contentStyleType="text/css" height="168px" preserveAspectRatio="none" style="width:1061px;height:168px;background:#FFFFFF;" version="1.1" viewBox="0 0 1061 168" width="1061px" zoomAndPan="magnify"><defs/><g><g id="elem_myConveyor"><rect fill="#F1F1F1" height="47.2188" style="stroke:#181818;stroke-width:0.5;" width="103" x="484" y="7"/><text fill="#000000" font-family="sans-serif" font-size="14" lengthAdjust="spacing" textLength="79" x="496" y="23.5332">myConveyor</text><line style="stroke:#181818;stroke-width:0.5;" x1="485" x2="586" y1="28.6094" y2="28.6094"/><text fill="#000000" font-family="sans-serif" font-size="14" lengthAdjust="spacing" textLength="91" x="490" y="47.1426">ST_Conveyor;</text></g><g id="elem_StationOne"><rect fill="#F1F1F1" height="47.2188" style="stroke:#181818;stroke-width:0.5;" width="147" x="7" y="114"/><text fill="#000000" font-family="sans-serif" font-size="14" lengthAdjust="spacing" textLength="71" x="45" y="130.5332">StationOne</text><line style="stroke:#181818;stroke-width:0.5;" x1="8" x2="153" y1="135.6094" y2="135.6094"/><text fill="#000000" font-family="sans-serif" font-size="14" lengthAdjust="spacing" textLength="135" x="13" y="154.1426">ST_StationConveyor;</text></g><g id="elem_StationOutput"><rect fill="#F1F1F1" height="47.2188" style="stroke:#181818;stroke-width:0.5;" width="147" x="189" y="114"/><text fill="#000000" font-family="sans-serif" font-size="14" lengthAdjust="spacing" textLength="87" x="219" y="130.5332">StationOutput</text><line style="stroke:#181818;stroke-width:0.5;" x1="190" x2="335" y1="135.6094" y2="135.6094"/><text fill="#000000" font-family="sans-serif" font-size="14" lengthAdjust="spacing" textLength="135" x="195" y="154.1426">ST_StationConveyor;</text></g><g id="elem_StationTwo"><rect fill="#F1F1F1" height="47.2188" style="stroke:#181818;stroke-width:0.5;" width="147" x="371" y="114"/><text fill="#000000" font-family="sans-serif" font-size="14" lengthAdjust="spacing" textLength="70" x="409.5" y="130.5332">StationTwo</text><line style="stroke:#181818;stroke-width:0.5;" x1="372" x2="517" y1="135.6094" y2="135.6094"/><text fill="#000000" font-family="sans-serif" font-size="14" lengthAdjust="spacing" textLength="135" x="377" y="154.1426">ST_StationConveyor;</text></g><g id="elem_StationThree"><rect fill="#F1F1F1" height="47.2188" style="stroke:#181818;stroke-width:0.5;" width="147" x="553" y="114"/><text fill="#000000" font-family="sans-serif" font-size="14" lengthAdjust="spacing" textLength="82" x="585.5" y="130.5332">StationThree</text><line style="stroke:#181818;stroke-width:0.5;" x1="554" x2="699" y1="135.6094" y2="135.6094"/><text fill="#000000" font-family="sans-serif" font-size="14" lengthAdjust="spacing" textLength="135" x="559" y="154.1426">ST_StationConveyor;</text></g><g id="elem_Motor"><rect fill="#F1F1F1" height="47.2188" style="stroke:#181818;stroke-width:0.5;" width="139" x="735" y="114"/><text fill="#000000" font-family="sans-serif" font-size="14" lengthAdjust="spacing" textLength="36" x="786.5" y="130.5332">Motor</text><line style="stroke:#181818;stroke-width:0.5;" x1="736" x2="873" y1="135.6094" y2="135.6094"/><text fill="#000000" font-family="sans-serif" font-size="14" lengthAdjust="spacing" textLength="127" x="741" y="154.1426">ST_MotorConveyor;</text></g><g id="elem_Buzzer"><rect fill="#F1F1F1" height="47.2188" style="stroke:#181818;stroke-width:0.5;" width="145" x="909" y="114"/><text fill="#000000" font-family="sans-serif" font-size="14" lengthAdjust="spacing" textLength="42" x="960.5" y="130.5332">Buzzer</text><line style="stroke:#181818;stroke-width:0.5;" x1="910" x2="1053" y1="135.6094" y2="135.6094"/><text fill="#000000" font-family="sans-serif" font-size="14" lengthAdjust="spacing" textLength="133" x="915" y="154.1426">ST_BuzzerConveyor;</text></g><g id="elem_myHmi"><rect fill="#F1F1F1" height="37.6094" style="stroke:#181818;stroke-width:0.5;" width="55" x="622" y="11.5"/><text fill="#000000" font-family="sans-serif" font-size="14" lengthAdjust="spacing" textLength="41" x="629" y="28.0332">myHmi</text><line style="stroke:#181818;stroke-width:0.5;" x1="623" x2="676" y1="33.1094" y2="33.1094"/></g><!--MD5=[641dbae5214e1205074506136b549fcd]
reverse link myConveyor to StationOne--><g id="link_myConveyor_StationOne"><path codeLine="24" d="M470.87,45.75 C398.03,61.9 276.12,89.21 171.5,114 C165.96,115.31 160.23,116.69 154.47,118.08 " fill="none" id="myConveyor-backto-StationOne" style="stroke:#181818;stroke-width:1.0;"/><polygon fill="#181818" points="483.89,42.87,477.1667,40.2628,472.1742,45.4662,478.8975,48.0734,483.89,42.87" style="stroke:#181818;stroke-width:1.0;"/></g><!--MD5=[6d621c34b5641ddd1a2e9f8bf6ff0de7]
reverse link myConveyor to StationTwo--><g id="link_myConveyor_StationTwo"><path codeLine="25" d="M507.26,64.09 C493.33,80.16 476.87,99.15 464.3,113.65 " fill="none" id="myConveyor-backto-StationTwo" style="stroke:#181818;stroke-width:1.0;"/><polygon fill="#181818" points="515.98,54.03,509.0267,55.9409,508.1163,63.0943,515.0696,61.1834,515.98,54.03" style="stroke:#181818;stroke-width:1.0;"/></g><!--MD5=[0007328e8d1a8c17951a652d86a5f6f4]
reverse link myConveyor to StationThree--><g id="link_myConveyor_StationThree"><path codeLine="26" d="M563.74,64.09 C577.67,80.16 594.13,99.15 606.7,113.65 " fill="none" id="myConveyor-backto-StationThree" style="stroke:#181818;stroke-width:1.0;"/><polygon fill="#181818" points="555.02,54.03,555.9304,61.1834,562.8837,63.0943,561.9733,55.9409,555.02,54.03" style="stroke:#181818;stroke-width:1.0;"/></g><!--MD5=[d9c2455ea6566e0fa78ceeff622e627d]
reverse link myConveyor to StationOutput--><g id="link_myConveyor_StationOutput"><path codeLine="27" d="M471.42,56.15 C425.91,73.65 365.28,96.97 321.06,113.98 " fill="none" id="myConveyor-backto-StationOutput" style="stroke:#181818;stroke-width:1.0;"/><polygon fill="#181818" points="483.83,51.37,476.7939,49.791,472.6302,55.6786,479.6663,57.2576,483.83,51.37" style="stroke:#181818;stroke-width:1.0;"/></g><!--MD5=[d1101eabf6fae83ffe0b0a247feb2843]
reverse link myConveyor to Motor--><g id="link_myConveyor_Motor"><path codeLine="28" d="M599.24,56.38 C643.95,73.83 703.24,96.97 746.59,113.9 " fill="none" id="myConveyor-backto-Motor" style="stroke:#181818;stroke-width:1.0;"/><polygon fill="#181818" points="587.05,51.62,591.1849,57.5279,598.2286,55.9833,594.0938,50.0755,587.05,51.62" style="stroke:#181818;stroke-width:1.0;"/></g><!--MD5=[7b18f91f9cb62def3857fe4157c61274]
reverse link myConveyor to Buzzer--><g id="link_myConveyor_Buzzer"><path codeLine="29" d="M600,52.77 C601.51,53.19 603.01,53.6 604.5,54 C730.41,87.58 764.49,84.86 891.5,114 C897.15,115.3 902.99,116.67 908.86,118.08 " fill="none" id="myConveyor-backto-Buzzer" style="stroke:#181818;stroke-width:1.0;"/><polygon fill="#181818" points="587.31,49.07,591.9437,54.5953,598.8262,52.4432,594.1925,46.9179,587.31,49.07" style="stroke:#181818;stroke-width:1.0;"/></g><!--MD5=[cb3c45262efe02344b46e8b865c0d4d6]
@startuml

object myConveyor
myConveyor : ST_Conveyor;

object StationOne
StationOne : ST_StationConveyor;

object StationOutput
StationOutput : ST_StationConveyor;

object StationTwo
StationTwo : ST_StationConveyor;

object StationThree
StationThree : ST_StationConveyor;

object Motor
Motor : ST_MotorConveyor;

object Buzzer
Buzzer : ST_BuzzerConveyor;

myConveyor *- - StationOne
myConveyor *- - StationTwo
myConveyor *- - StationThree
myConveyor *- - StationOutput
myConveyor *- - Motor
myConveyor *- - Buzzer

object myHmi 

@enduml

PlantUML version 1.2022.7(Mon Aug 22 19:01:30 CEST 2022)
(GPL source distribution)
Java Runtime: Java(TM) SE Runtime Environment
JVM: Java HotSpot(TM) 64-Bit Server VM
Default Encoding: Cp1252
Language: en
Country: US
--></g></svg>