<?xml version="1.0" encoding="UTF-8" standalone="no"?><svg xmlns="http://www.w3.org/2000/svg" xmlns:xlink="http://www.w3.org/1999/xlink" contentStyleType="text/css" height="311px" preserveAspectRatio="none" style="width:748px;height:311px;background:#FFFFFF;" version="1.1" viewBox="0 0 748 311" width="748px" zoomAndPan="magnify"><defs/><g><!--MD5=[ad10be5a7d7bf3639bb6361885586513]
class ST_Conveyor--><g id="elem_ST_Conveyor"><rect codeLine="2" fill="#F1F1F1" height="153.6563" id="ST_Conveyor" rx="2.5" ry="2.5" style="stroke:#181818;stroke-width:0.5;" width="246" x="7" y="7"/><ellipse cx="82.25" cy="23" fill="#F1F1F1" rx="11" ry="11" style="stroke:#181818;stroke-width:1.0;"/><path d="M80.3594,27.5625 Q80.1406,27.8281 80,27.9063 Q79.8594,27.9844 79.6719,27.9844 Q79.2813,27.9844 79.0391,27.7188 Q78.7969,27.4531 78.7969,26.8594 L78.7969,25.7031 Q78.7969,25.0938 79.0391,24.8359 Q79.2813,24.5781 79.6719,24.5781 Q79.9688,24.5781 80.1719,24.7344 Q80.375,24.8906 80.4844,25.2578 Q80.5938,25.625 80.7031,25.7656 Q80.9531,26.0156 81.5625,26.2813 Q82.1719,26.5469 82.9063,26.5469 Q84.0469,26.5469 84.7656,26.0156 Q85.2344,25.6875 85.2344,25.2188 Q85.2344,24.9063 85.0156,24.625 Q84.7969,24.3438 84.2813,24.1719 Q83.9531,24.0469 82.7969,23.8281 Q81.4063,23.5625 80.6875,23.2031 Q79.9688,22.8438 79.5547,22.1797 Q79.1406,21.5156 79.1406,20.7344 Q79.1406,19.5156 80.1641,18.6016 Q81.1875,17.6875 82.8281,17.6875 Q83.4844,17.6875 84.0391,17.8281 Q84.5938,17.9688 85.0625,18.2656 Q85.3906,17.9531 85.7188,17.9531 Q86.0938,17.9531 86.3281,18.2109 Q86.5625,18.4688 86.5625,19.0781 L86.5625,20.3594 Q86.5625,20.9688 86.3281,21.2266 Q86.0938,21.4844 85.7188,21.4844 Q85.4063,21.4844 85.1719,21.2969 Q84.9844,21.1563 84.8984,20.7344 Q84.8125,20.3125 84.6719,20.125 Q84.4219,19.8125 83.9453,19.6016 Q83.4688,19.3906 82.8281,19.3906 Q81.9063,19.3906 81.375,19.8125 Q80.8438,20.2344 80.8438,20.7031 Q80.8438,21.0156 81.0625,21.3125 Q81.2813,21.6094 81.7031,21.7813 Q81.9844,21.8906 83.2891,22.1484 Q84.5938,22.4063 85.2969,22.7109 Q86,23.0156 86.4688,23.6719 Q86.9375,24.3281 86.9375,25.2344 Q86.9375,26.5 86.0469,27.25 Q84.8594,28.25 83.0313,28.25 Q82.3281,28.25 81.6641,28.0781 Q81,27.9063 80.3594,27.5625 Z " fill="#000000"/><text fill="#000000" font-family="sans-serif" font-size="14" lengthAdjust="spacing" textLength="87" x="102.75" y="28.7285">ST_Conveyor</text><line style="stroke:#181818;stroke-width:0.5;" x1="8" x2="252" y1="39" y2="39"/><text fill="#000000" font-family="sans-serif" font-size="14" lengthAdjust="spacing" textLength="218" x="13" y="57.5332">StationOne : ST_StationConveyor;</text><text fill="#000000" font-family="sans-serif" font-size="14" lengthAdjust="spacing" textLength="217" x="13" y="75.1426">StationTwo : ST_StationConveyor;</text><text fill="#000000" font-family="sans-serif" font-size="14" lengthAdjust="spacing" textLength="229" x="13" y="92.752">StationThree : ST_StationConveyor;</text><text fill="#000000" font-family="sans-serif" font-size="14" lengthAdjust="spacing" textLength="234" x="13" y="110.3613">StationOutput : ST_StationConveyor;</text><text fill="#000000" font-family="sans-serif" font-size="14" lengthAdjust="spacing" textLength="175" x="13" y="127.9707">Motor : ST_MotorConveyor;</text><text fill="#000000" font-family="sans-serif" font-size="14" lengthAdjust="spacing" textLength="187" x="13" y="145.5801">Buzzer : ST_BuzzerConveyor;</text><line style="stroke:#181818;stroke-width:0.5;" x1="8" x2="252" y1="152.6563" y2="152.6563"/></g><!--MD5=[803d3517fe5481867eaa31ead37b49c9]
class ST_StationConveyor--><g id="elem_ST_StationConveyor"><rect codeLine="10" fill="#F1F1F1" height="100.8281" id="ST_StationConveyor" rx="2.5" ry="2.5" style="stroke:#181818;stroke-width:0.5;" width="163" x="288.5" y="33.5"/><ellipse cx="303.5" cy="49.5" fill="#F1F1F1" rx="11" ry="11" style="stroke:#181818;stroke-width:1.0;"/><path d="M301.6094,54.0625 Q301.3906,54.3281 301.25,54.4063 Q301.1094,54.4844 300.9219,54.4844 Q300.5313,54.4844 300.2891,54.2188 Q300.0469,53.9531 300.0469,53.3594 L300.0469,52.2031 Q300.0469,51.5938 300.2891,51.3359 Q300.5313,51.0781 300.9219,51.0781 Q301.2188,51.0781 301.4219,51.2344 Q301.625,51.3906 301.7344,51.7578 Q301.8438,52.125 301.9531,52.2656 Q302.2031,52.5156 302.8125,52.7813 Q303.4219,53.0469 304.1563,53.0469 Q305.2969,53.0469 306.0156,52.5156 Q306.4844,52.1875 306.4844,51.7188 Q306.4844,51.4063 306.2656,51.125 Q306.0469,50.8438 305.5313,50.6719 Q305.2031,50.5469 304.0469,50.3281 Q302.6563,50.0625 301.9375,49.7031 Q301.2188,49.3438 300.8047,48.6797 Q300.3906,48.0156 300.3906,47.2344 Q300.3906,46.0156 301.4141,45.1016 Q302.4375,44.1875 304.0781,44.1875 Q304.7344,44.1875 305.2891,44.3281 Q305.8438,44.4688 306.3125,44.7656 Q306.6406,44.4531 306.9688,44.4531 Q307.3438,44.4531 307.5781,44.7109 Q307.8125,44.9688 307.8125,45.5781 L307.8125,46.8594 Q307.8125,47.4688 307.5781,47.7266 Q307.3438,47.9844 306.9688,47.9844 Q306.6563,47.9844 306.4219,47.7969 Q306.2344,47.6563 306.1484,47.2344 Q306.0625,46.8125 305.9219,46.625 Q305.6719,46.3125 305.1953,46.1016 Q304.7188,45.8906 304.0781,45.8906 Q303.1563,45.8906 302.625,46.3125 Q302.0938,46.7344 302.0938,47.2031 Q302.0938,47.5156 302.3125,47.8125 Q302.5313,48.1094 302.9531,48.2813 Q303.2344,48.3906 304.5391,48.6484 Q305.8438,48.9063 306.5469,49.2109 Q307.25,49.5156 307.7188,50.1719 Q308.1875,50.8281 308.1875,51.7344 Q308.1875,53 307.2969,53.75 Q306.1094,54.75 304.2813,54.75 Q303.5781,54.75 302.9141,54.5781 Q302.25,54.4063 301.6094,54.0625 Z " fill="#000000"/><text fill="#000000" font-family="sans-serif" font-size="14" lengthAdjust="spacing" textLength="131" x="317.5" y="55.2285">ST_StationConveyor</text><line style="stroke:#181818;stroke-width:0.5;" x1="289.5" x2="450.5" y1="65.5" y2="65.5"/><text fill="#000000" font-family="sans-serif" font-size="14" lengthAdjust="spacing" textLength="104" x="294.5" y="84.0332">bButton : BOOL;</text><text fill="#000000" font-family="sans-serif" font-size="14" lengthAdjust="spacing" textLength="99" x="294.5" y="101.6426">bLed    : BOOL;</text><text fill="#000000" font-family="sans-serif" font-size="14" lengthAdjust="spacing" textLength="108" x="294.5" y="119.252">bSensor : BOOL;</text><line style="stroke:#181818;stroke-width:0.5;" x1="289.5" x2="450.5" y1="126.3281" y2="126.3281"/></g><!--MD5=[b012a3e18a80c84005e012e2243dacd2]
class ST_MotorConveyor--><g id="elem_ST_MotorConveyor"><rect codeLine="15" fill="#F1F1F1" height="83.2188" id="ST_MotorConveyor" rx="2.5" ry="2.5" style="stroke:#181818;stroke-width:0.5;" width="255" x="486.5" y="42.5"/><ellipse cx="548.25" cy="58.5" fill="#F1F1F1" rx="11" ry="11" style="stroke:#181818;stroke-width:1.0;"/><path d="M546.3594,63.0625 Q546.1406,63.3281 546,63.4063 Q545.8594,63.4844 545.6719,63.4844 Q545.2813,63.4844 545.0391,63.2188 Q544.7969,62.9531 544.7969,62.3594 L544.7969,61.2031 Q544.7969,60.5938 545.0391,60.3359 Q545.2813,60.0781 545.6719,60.0781 Q545.9688,60.0781 546.1719,60.2344 Q546.375,60.3906 546.4844,60.7578 Q546.5938,61.125 546.7031,61.2656 Q546.9531,61.5156 547.5625,61.7813 Q548.1719,62.0469 548.9063,62.0469 Q550.0469,62.0469 550.7656,61.5156 Q551.2344,61.1875 551.2344,60.7188 Q551.2344,60.4063 551.0156,60.125 Q550.7969,59.8438 550.2813,59.6719 Q549.9531,59.5469 548.7969,59.3281 Q547.4063,59.0625 546.6875,58.7031 Q545.9688,58.3438 545.5547,57.6797 Q545.1406,57.0156 545.1406,56.2344 Q545.1406,55.0156 546.1641,54.1016 Q547.1875,53.1875 548.8281,53.1875 Q549.4844,53.1875 550.0391,53.3281 Q550.5938,53.4688 551.0625,53.7656 Q551.3906,53.4531 551.7188,53.4531 Q552.0938,53.4531 552.3281,53.7109 Q552.5625,53.9688 552.5625,54.5781 L552.5625,55.8594 Q552.5625,56.4688 552.3281,56.7266 Q552.0938,56.9844 551.7188,56.9844 Q551.4063,56.9844 551.1719,56.7969 Q550.9844,56.6563 550.8984,56.2344 Q550.8125,55.8125 550.6719,55.625 Q550.4219,55.3125 549.9453,55.1016 Q549.4688,54.8906 548.8281,54.8906 Q547.9063,54.8906 547.375,55.3125 Q546.8438,55.7344 546.8438,56.2031 Q546.8438,56.5156 547.0625,56.8125 Q547.2813,57.1094 547.7031,57.2813 Q547.9844,57.3906 549.2891,57.6484 Q550.5938,57.9063 551.2969,58.2109 Q552,58.5156 552.4688,59.1719 Q552.9375,59.8281 552.9375,60.7344 Q552.9375,62 552.0469,62.75 Q550.8594,63.75 549.0313,63.75 Q548.3281,63.75 547.6641,63.5781 Q547,63.4063 546.3594,63.0625 Z " fill="#000000"/><text fill="#000000" font-family="sans-serif" font-size="14" lengthAdjust="spacing" textLength="123" x="568.75" y="64.2285">ST_MotorConveyor</text><line style="stroke:#181818;stroke-width:0.5;" x1="487.5" x2="740.5" y1="74.5" y2="74.5"/><text fill="#000000" font-family="sans-serif" font-size="14" lengthAdjust="spacing" textLength="180" x="492.5" y="93.0332">bK_ActivatePositiveDirection</text><text fill="#000000" font-family="sans-serif" font-size="14" lengthAdjust="spacing" textLength="51" x="684.5" y="93.0332">: BOOL;</text><text fill="#000000" font-family="sans-serif" font-size="14" lengthAdjust="spacing" textLength="186" x="492.5" y="110.6426">bK_ActivateNegativeDirection</text><text fill="#000000" font-family="sans-serif" font-size="14" lengthAdjust="spacing" textLength="51" x="684.5" y="110.6426">: BOOL;</text><line style="stroke:#181818;stroke-width:0.5;" x1="487.5" x2="740.5" y1="117.7188" y2="117.7188"/></g><!--MD5=[43de533750b413c27e510d55227fd33c]
class ST_BuzzerConveyor--><g id="elem_ST_BuzzerConveyor"><rect codeLine="19" fill="#F1F1F1" height="83.2188" id="ST_BuzzerConveyor" rx="2.5" ry="2.5" style="stroke:#181818;stroke-width:0.5;" width="161" x="49.5" y="221"/><ellipse cx="64.5" cy="237" fill="#F1F1F1" rx="11" ry="11" style="stroke:#181818;stroke-width:1.0;"/><path d="M62.6094,241.5625 Q62.3906,241.8281 62.25,241.9063 Q62.1094,241.9844 61.9219,241.9844 Q61.5313,241.9844 61.2891,241.7188 Q61.0469,241.4531 61.0469,240.8594 L61.0469,239.7031 Q61.0469,239.0938 61.2891,238.8359 Q61.5313,238.5781 61.9219,238.5781 Q62.2188,238.5781 62.4219,238.7344 Q62.625,238.8906 62.7344,239.2578 Q62.8438,239.625 62.9531,239.7656 Q63.2031,240.0156 63.8125,240.2813 Q64.4219,240.5469 65.1563,240.5469 Q66.2969,240.5469 67.0156,240.0156 Q67.4844,239.6875 67.4844,239.2188 Q67.4844,238.9063 67.2656,238.625 Q67.0469,238.3438 66.5313,238.1719 Q66.2031,238.0469 65.0469,237.8281 Q63.6563,237.5625 62.9375,237.2031 Q62.2188,236.8438 61.8047,236.1797 Q61.3906,235.5156 61.3906,234.7344 Q61.3906,233.5156 62.4141,232.6016 Q63.4375,231.6875 65.0781,231.6875 Q65.7344,231.6875 66.2891,231.8281 Q66.8438,231.9688 67.3125,232.2656 Q67.6406,231.9531 67.9688,231.9531 Q68.3438,231.9531 68.5781,232.2109 Q68.8125,232.4688 68.8125,233.0781 L68.8125,234.3594 Q68.8125,234.9688 68.5781,235.2266 Q68.3438,235.4844 67.9688,235.4844 Q67.6563,235.4844 67.4219,235.2969 Q67.2344,235.1563 67.1484,234.7344 Q67.0625,234.3125 66.9219,234.125 Q66.6719,233.8125 66.1953,233.6016 Q65.7188,233.3906 65.0781,233.3906 Q64.1563,233.3906 63.625,233.8125 Q63.0938,234.2344 63.0938,234.7031 Q63.0938,235.0156 63.3125,235.3125 Q63.5313,235.6094 63.9531,235.7813 Q64.2344,235.8906 65.5391,236.1484 Q66.8438,236.4063 67.5469,236.7109 Q68.25,237.0156 68.7188,237.6719 Q69.1875,238.3281 69.1875,239.2344 Q69.1875,240.5 68.2969,241.25 Q67.1094,242.25 65.2813,242.25 Q64.5781,242.25 63.9141,242.0781 Q63.25,241.9063 62.6094,241.5625 Z " fill="#000000"/><text fill="#000000" font-family="sans-serif" font-size="14" lengthAdjust="spacing" textLength="129" x="78.5" y="242.7285">ST_BuzzerConveyor</text><line style="stroke:#181818;stroke-width:0.5;" x1="50.5" x2="209.5" y1="253" y2="253"/><text fill="#000000" font-family="sans-serif" font-size="14" lengthAdjust="spacing" textLength="113" x="55.5" y="271.5332">bActivate : BOOL;</text><text fill="#000000" font-family="sans-serif" font-size="14" lengthAdjust="spacing" textLength="135" x="55.5" y="289.1426">tTime : TIME := T#2s;</text><line style="stroke:#181818;stroke-width:0.5;" x1="50.5" x2="209.5" y1="296.2188" y2="296.2188"/></g><!--MD5=[0062a48c3007558ce7abfcb6c686d94b]
class ST_HmiConveyor--><g id="elem_ST_HmiConveyor"><rect codeLine="23" fill="#F1F1F1" height="83.2188" id="ST_HmiConveyor" rx="2.5" ry="2.5" style="stroke:#181818;stroke-width:0.5;" width="191" x="245.5" y="221"/><ellipse cx="282.55" cy="237" fill="#F1F1F1" rx="11" ry="11" style="stroke:#181818;stroke-width:1.0;"/><path d="M280.6594,241.5625 Q280.4406,241.8281 280.3,241.9063 Q280.1594,241.9844 279.9719,241.9844 Q279.5813,241.9844 279.3391,241.7188 Q279.0969,241.4531 279.0969,240.8594 L279.0969,239.7031 Q279.0969,239.0938 279.3391,238.8359 Q279.5813,238.5781 279.9719,238.5781 Q280.2688,238.5781 280.4719,238.7344 Q280.675,238.8906 280.7844,239.2578 Q280.8938,239.625 281.0031,239.7656 Q281.2531,240.0156 281.8625,240.2813 Q282.4719,240.5469 283.2063,240.5469 Q284.3469,240.5469 285.0656,240.0156 Q285.5344,239.6875 285.5344,239.2188 Q285.5344,238.9063 285.3156,238.625 Q285.0969,238.3438 284.5813,238.1719 Q284.2531,238.0469 283.0969,237.8281 Q281.7063,237.5625 280.9875,237.2031 Q280.2688,236.8438 279.8547,236.1797 Q279.4406,235.5156 279.4406,234.7344 Q279.4406,233.5156 280.4641,232.6016 Q281.4875,231.6875 283.1281,231.6875 Q283.7844,231.6875 284.3391,231.8281 Q284.8938,231.9688 285.3625,232.2656 Q285.6906,231.9531 286.0188,231.9531 Q286.3938,231.9531 286.6281,232.2109 Q286.8625,232.4688 286.8625,233.0781 L286.8625,234.3594 Q286.8625,234.9688 286.6281,235.2266 Q286.3938,235.4844 286.0188,235.4844 Q285.7063,235.4844 285.4719,235.2969 Q285.2844,235.1563 285.1984,234.7344 Q285.1125,234.3125 284.9719,234.125 Q284.7219,233.8125 284.2453,233.6016 Q283.7688,233.3906 283.1281,233.3906 Q282.2063,233.3906 281.675,233.8125 Q281.1438,234.2344 281.1438,234.7031 Q281.1438,235.0156 281.3625,235.3125 Q281.5813,235.6094 282.0031,235.7813 Q282.2844,235.8906 283.5891,236.1484 Q284.8938,236.4063 285.5969,236.7109 Q286.3,237.0156 286.7688,237.6719 Q287.2375,238.3281 287.2375,239.2344 Q287.2375,240.5 286.3469,241.25 Q285.1594,242.25 283.3313,242.25 Q282.6281,242.25 281.9641,242.0781 Q281.3,241.9063 280.6594,241.5625 Z " fill="#000000"/><text fill="#000000" font-family="sans-serif" font-size="14" lengthAdjust="spacing" textLength="110" x="301.45" y="242.7285">ST_HmiConveyor</text><line style="stroke:#181818;stroke-width:0.5;" x1="246.5" x2="435.5" y1="253" y2="253"/><text fill="#000000" font-family="sans-serif" font-size="14" lengthAdjust="spacing" textLength="99" x="251.5" y="271.5332">bStartConveyor</text><text fill="#000000" font-family="sans-serif" font-size="14" lengthAdjust="spacing" textLength="51" x="379.5" y="271.5332">: BOOL;</text><text fill="#000000" font-family="sans-serif" font-size="14" lengthAdjust="spacing" textLength="98" x="251.5" y="289.1426">bStopConveyor</text><text fill="#000000" font-family="sans-serif" font-size="14" lengthAdjust="spacing" textLength="51" x="379.5" y="289.1426">: BOOL;</text><line style="stroke:#181818;stroke-width:0.5;" x1="246.5" x2="435.5" y1="296.2188" y2="296.2188"/></g><!--MD5=[24c00cee19ee1b4e88fb72d313986550]
@startuml
struct ST_Conveyor
ST_Conveyor : StationOne : ST_StationConveyor;
ST_Conveyor : StationTwo : ST_StationConveyor;
ST_Conveyor : StationThree : ST_StationConveyor;
ST_Conveyor : StationOutput : ST_StationConveyor;
ST_Conveyor : Motor : ST_MotorConveyor;
ST_Conveyor : Buzzer : ST_BuzzerConveyor;

struct ST_StationConveyor
ST_StationConveyor : bButton : BOOL;
ST_StationConveyor : bLed    : BOOL;
ST_StationConveyor : bSensor : BOOL;

struct ST_MotorConveyor
ST_MotorConveyor : bK_ActivatePositiveDirection	: BOOL;
ST_MotorConveyor : bK_ActivateNegativeDirection	: BOOL;

struct ST_BuzzerConveyor
ST_BuzzerConveyor : bActivate : BOOL;
ST_BuzzerConveyor : tTime : TIME := T#2s; 

struct ST_HmiConveyor
ST_HmiConveyor : bStartConveyor	: BOOL;
ST_HmiConveyor : bStopConveyor	: BOOL; 

@enduml

PlantUML version 1.2022.7(Mon Aug 22 19:01:30 CEST 2022)
(GPL source distribution)
Java Runtime: Java(TM) SE Runtime Environment
JVM: Java HotSpot(TM) 64-Bit Server VM
Default Encoding: Cp1252
Language: en
Country: US
--></g></svg>